<svg xmlns="http://www.w3.org/2000/svg" > 
    <defs>
        <svg id='dashboard' viewBox="0 0 24 24" fill="none" xmlns="http://www.w3.org/2000/svg">
            <path d="M21 3H3C1.9 3 1 3.9 1 5V19C1 20.1 1.9 21 3 21H21C22.1 21 23 20.1 23 19V5C23 3.9 22.1 3 21 3ZM21 19H3V5H13V9H21V19Z" fill="currentColor"/>
        </svg>
        <svg id='invoices'  viewBox="0 0 24 24" fill="none" xmlns="http://www.w3.org/2000/svg">
            <g opacity="0.9">
                <path d="M12 1L3 5V11C3 16.55 6.84 21.74 12 23C17.16 21.74 21 16.55 21 11V5L12 1ZM19 11C19 15.52 16.02 19.69 12 20.93C7.98 19.69 5 15.52 5 11V6.3L12 3.19L19 6.3V11ZM7.41 11.59L6 13L10 17L18 9L16.59 7.58L10 14.17L7.41 11.59Z" fill="currentColor"/>
            </g>
        </svg>
        <svg id='available-units' viewBox="0 0 24 24" fill="none" xmlns="http://www.w3.org/2000/svg">
            <g opacity="0.9">
                <path d="M12 7V3H2V21H22V7H12ZM6 19H4V17H6V19ZM6 15H4V13H6V15ZM6 11H4V9H6V11ZM6 7H4V5H6V7ZM10 19H8V17H10V19ZM10 15H8V13H10V15ZM10 11H8V9H10V11ZM10 7H8V5H10V7ZM20 19H12V17H14V15H12V13H14V11H12V9H20V19ZM18 11H16V13H18V11ZM18 15H16V17H18V15Z" fill="currentColor"/>
            </g>
        </svg>
        <svg id='projects' viewBox="0 0 24 24" fill="none" xmlns="http://www.w3.org/2000/svg">
            <g opacity="0.9">
                <path d="M12 2C6.5 2 2 6.5 2 12C2 17.5 6.5 22 12 22C17.5 22 22 17.5 22 12C22 6.5 17.5 2 12 2ZM12 20C7.59 20 4 16.41 4 12C4 7.59 7.59 4 12 4C16.41 4 20 7.59 20 12C20 16.41 16.41 20 12 20ZM12.5 7H11V13L16.2 16.2L17 14.9L12.5 12.2V7Z" fill="currentColor"/>
            </g>
        </svg>
        <svg id='social-media' viewBox="0 0 24 24" fill="none" xmlns="http://www.w3.org/2000/svg">
            <g opacity="0.9">
                <path d="M18 16.08C17.24 16.08 16.56 16.38 16.04 16.85L8.91 12.7C8.96 12.47 9 12.24 9 12C9 11.76 8.96 11.53 8.91 11.3L15.96 7.19C16.5 7.69 17.21 8 18 8C19.66 8 21 6.66 21 5C21 3.34 19.66 2 18 2C16.34 2 15 3.34 15 5C15 5.24 15.04 5.47 15.09 5.7L8.04 9.81C7.5 9.31 6.79 9 6 9C4.34 9 3 10.34 3 12C3 13.66 4.34 15 6 15C6.79 15 7.5 14.69 8.04 14.19L15.16 18.35C15.11 18.56 15.08 18.78 15.08 19C15.08 20.61 16.39 21.92 18 21.92C19.61 21.92 20.92 20.61 20.92 19C20.92 17.39 19.61 16.08 18 16.08ZM18 4C18.55 4 19 4.45 19 5C19 5.55 18.55 6 18 6C17.45 6 17 5.55 17 5C17 4.45 17.45 4 18 4ZM6 13C5.45 13 5 12.55 5 12C5 11.45 5.45 11 6 11C6.55 11 7 11.45 7 12C7 12.55 6.55 13 6 13ZM18 20.02C17.45 20.02 17 19.57 17 19.02C17 18.47 17.45 18.02 18 18.02C18.55 18.02 19 18.47 19 19.02C19 19.57 18.55 20.02 18 20.02Z" fill="currentColor"/>
            </g>
        </svg>
        <svg id='integrations' viewBox="0 0 24 24" fill="none" xmlns="http://www.w3.org/2000/svg">
            <g opacity="0.9">
                <path d="M19 5V7H15V5H19ZM9 5V11H5V5H9ZM19 13V19H15V13H19ZM9 17V19H5V17H9ZM21 3H13V9H21V3ZM11 3H3V13H11V3ZM21 11H13V21H21V11ZM11 15H3V21H11V15Z" fill="currentColor"/>
            </g>
        </svg>
        <svg id='documentation' viewBox="0 0 24 24" fill="none" xmlns="http://www.w3.org/2000/svg">
            <g opacity="0.9">
                <path d="M15 7V19.97L10.79 18.16L10 17.82L9.21 18.16L5 19.97V7H15ZM19 1H8.99C7.89 1 7 1.9 7 3H17C18.1 3 19 3.9 19 5V18L21 19V3C21 1.9 20.1 1 19 1ZM15 5H5C3.9 5 3 5.9 3 7V23L10 20L17 23V7C17 5.9 16.1 5 15 5Z" fill="currentColor"/>
            </g>
        </svg>
        <svg id='settings' width="24" height="24" viewBox="0 0 24 24" fill="none" xmlns="http://www.w3.org/2000/svg">
            <g opacity="0.9">
                <path d="M19.4298 12.98C19.4698 12.66 19.4998 12.34 19.4998 12C19.4998 11.66 19.4698 11.34 19.4298 11.02L21.5398 9.37C21.7298 9.22 21.7798 8.95 21.6598 8.73L19.6598 5.27C19.5698 5.11 19.3998 5.02 19.2198 5.02C19.1598 5.02 19.0998 5.03 19.0498 5.05L16.5598 6.05C16.0398 5.65 15.4798 5.32 14.8698 5.07L14.4898 2.42C14.4598 2.18 14.2498 2 13.9998 2H9.99984C9.74984 2 9.53984 2.18 9.50984 2.42L9.12984 5.07C8.51984 5.32 7.95984 5.66 7.43984 6.05L4.94984 5.05C4.88984 5.03 4.82984 5.02 4.76984 5.02C4.59984 5.02 4.42984 5.11 4.33984 5.27L2.33984 8.73C2.20984 8.95 2.26984 9.22 2.45984 9.37L4.56984 11.02C4.52984 11.34 4.49984 11.67 4.49984 12C4.49984 12.33 4.52984 12.66 4.56984 12.98L2.45984 14.63C2.26984 14.78 2.21984 15.05 2.33984 15.27L4.33984 18.73C4.42984 18.89 4.59984 18.98 4.77984 18.98C4.83984 18.98 4.89984 18.97 4.94984 18.95L7.43984 17.95C7.95984 18.35 8.51984 18.68 9.12984 18.93L9.50984 21.58C9.53984 21.82 9.74984 22 9.99984 22H13.9998C14.2498 22 14.4598 21.82 14.4898 21.58L14.8698 18.93C15.4798 18.68 16.0398 18.34 16.5598 17.95L19.0498 18.95C19.1098 18.97 19.1698 18.98 19.2298 18.98C19.3998 18.98 19.5698 18.89 19.6598 18.73L21.6598 15.27C21.7798 15.05 21.7298 14.78 21.5398 14.63L19.4298 12.98V12.98ZM17.4498 11.27C17.4898 11.58 17.4998 11.79 17.4998 12C17.4998 12.21 17.4798 12.43 17.4498 12.73L17.3098 13.86L18.1998 14.56L19.2798 15.4L18.5798 16.61L17.3098 16.1L16.2698 15.68L15.3698 16.36C14.9398 16.68 14.5298 16.92 14.1198 17.09L13.0598 17.52L12.8998 18.65L12.6998 20H11.2998L11.1098 18.65L10.9498 17.52L9.88984 17.09C9.45984 16.91 9.05984 16.68 8.65984 16.38L7.74984 15.68L6.68984 16.11L5.41984 16.62L4.71984 15.41L5.79984 14.57L6.68984 13.87L6.54984 12.74C6.51984 12.43 6.49984 12.2 6.49984 12C6.49984 11.8 6.51984 11.57 6.54984 11.27L6.68984 10.14L5.79984 9.44L4.71984 8.6L5.41984 7.39L6.68984 7.9L7.72984 8.32L8.62984 7.64C9.05984 7.32 9.46984 7.08 9.87984 6.91L10.9398 6.48L11.0998 5.35L11.2998 4H12.6898L12.8798 5.35L13.0398 6.48L14.0998 6.91C14.5298 7.09 14.9298 7.32 15.3298 7.62L16.2398 8.32L17.2998 7.89L18.5698 7.38L19.2698 8.59L18.1998 9.44L17.3098 10.14L17.4498 11.27ZM11.9998 8C9.78984 8 7.99984 9.79 7.99984 12C7.99984 14.21 9.78984 16 11.9998 16C14.2098 16 15.9998 14.21 15.9998 12C15.9998 9.79 14.2098 8 11.9998 8ZM11.9998 14C10.8998 14 9.99984 13.1 9.99984 12C9.99984 10.9 10.8998 10 11.9998 10C13.0998 10 13.9998 10.9 13.9998 12C13.9998 13.1 13.0998 14 11.9998 14Z" fill="currentColor"/>
            </g>
        </svg>
        <svg id='help-center' viewBox="0 0 24 24" fill="none" xmlns="http://www.w3.org/2000/svg">
            <g opacity="0.9">
                <path d="M11 18H13V16H11V18ZM12 2C6.48 2 2 6.48 2 12C2 17.52 6.48 22 12 22C17.52 22 22 17.52 22 12C22 6.48 17.52 2 12 2ZM12 20C7.59 20 4 16.41 4 12C4 7.59 7.59 4 12 4C16.41 4 20 7.59 20 12C20 16.41 16.41 20 12 20ZM12 6C9.79 6 8 7.79 8 10H10C10 8.9 10.9 8 12 8C13.1 8 14 8.9 14 10C14 12 11 11.75 11 15H13C13 12.75 16 12.5 16 10C16 7.79 14.21 6 12 6Z" fill="currentColor"/>
            </g>
        </svg>
        <svg id='bell' viewBox="0 0 16 16" fill="none" xmlns="http://www.w3.org/2000/svg">
            <path d="M8.00008 14.6667C8.73341 14.6667 9.33341 14.0667 9.33341 13.3334H6.66675C6.66675 14.0667 7.26675 14.6667 8.00008 14.6667ZM12.0001 10.6667V7.33335C12.0001 5.28669 10.9134 3.57335 9.00008 3.12002V2.66669C9.00008 2.11335 8.55341 1.66669 8.00008 1.66669C7.44675 1.66669 7.00008 2.11335 7.00008 2.66669V3.12002C5.09341 3.57335 4.00008 5.28002 4.00008 7.33335V10.6667L2.66675 12V12.6667H13.3334V12L12.0001 10.6667ZM10.6667 11.3334H5.33341V7.33335C5.33341 5.68002 6.34008 4.33335 8.00008 4.33335C9.66008 4.33335 10.6667 5.68002 10.6667 7.33335V11.3334Z" fill="currentColor"/>
        </svg>
        <svg id='search' viewBox="0 0 16 16" fill="none" xmlns="http://www.w3.org/2000/svg">
            <path d="M10.3333 9.33333H9.80667L9.62 9.15333C10.2733 8.39333 10.6667 7.40667 10.6667 6.33333C10.6667 3.94 8.72667 2 6.33333 2C3.94 2 2 3.94 2 6.33333C2 8.72667 3.94 10.6667 6.33333 10.6667C7.40667 10.6667 8.39333 10.2733 9.15333 9.62L9.33333 9.80667V10.3333L12.6667 13.66L13.66 12.6667L10.3333 9.33333ZM6.33333 9.33333C4.67333 9.33333 3.33333 7.99333 3.33333 6.33333C3.33333 4.67333 4.67333 3.33333 6.33333 3.33333C7.99333 3.33333 9.33333 4.67333 9.33333 6.33333C9.33333 7.99333 7.99333 9.33333 6.33333 9.33333Z" fill="currentColor"/>
        </svg>
        <svg id='input-search-icon' viewBox="0 0 16 16" fill="none" xmlns="http://www.w3.org/2000/svg">
            <path d="M10.3333 9.33333H9.80667L9.62 9.15333C10.2733 8.39333 10.6667 7.40667 10.6667 6.33333C10.6667 3.94 8.72667 2 6.33333 2C3.94 2 2 3.94 2 6.33333C2 8.72667 3.94 10.6667 6.33333 10.6667C7.40667 10.6667 8.39333 10.2733 9.15333 9.62L9.33333 9.80667V10.3333L12.6667 13.66L13.66 12.6667L10.3333 9.33333ZM6.33333 9.33333C4.67333 9.33333 3.33333 7.99333 3.33333 6.33333C3.33333 4.67333 4.67333 3.33333 6.33333 3.33333C7.99333 3.33333 9.33333 4.67333 9.33333 6.33333C9.33333 7.99333 7.99333 9.33333 6.33333 9.33333Z" fill="currentColor"/>
        </svg>
        <svg id='location-pin' viewBox="0 0 16 16" fill="none" xmlns="http://www.w3.org/2000/svg">
            <g opacity="0.9">
            <path d="M8.00016 1.33334C5.42016 1.33334 3.3335 3.42001 3.3335 6.00001C3.3335 9.50001 8.00016 14.6667 8.00016 14.6667C8.00016 14.6667 12.6668 9.50001 12.6668 6.00001C12.6668 3.42001 10.5802 1.33334 8.00016 1.33334ZM4.66683 6.00001C4.66683 4.16001 6.16016 2.66668 8.00016 2.66668C9.84016 2.66668 11.3335 4.16001 11.3335 6.00001C11.3335 7.92001 9.4135 10.7933 8.00016 12.5867C6.6135 10.8067 4.66683 7.90001 4.66683 6.00001Z" fill="currentColor"/>
            <path d="M8.00016 7.66668C8.92064 7.66668 9.66683 6.92048 9.66683 6.00001C9.66683 5.07954 8.92064 4.33334 8.00016 4.33334C7.07969 4.33334 6.3335 5.07954 6.3335 6.00001C6.3335 6.92048 7.07969 7.66668 8.00016 7.66668Z" fill="currentColor"/>
            </g>
        </svg>
        <svg id='rooms' viewBox="0 0 16 16" fill="none" xmlns="http://www.w3.org/2000/svg">
            <g opacity="0.9">
            <path d="M1.3335 3.99999H4.00016V11.3333H1.3335V3.99999ZM4.66683 12.6667H11.3335V2.66666H4.66683V12.6667ZM6.00016 3.99999H10.0002V11.3333H6.00016V3.99999ZM12.0002 3.99999H14.6668V11.3333H12.0002V3.99999Z" fill="currentColor"/>
            </g>
        </svg>
        <svg id='villa' viewBox="0 0 16 16" fill="none" xmlns="http://www.w3.org/2000/svg">
            <g opacity="0.9">
            <path d="M8.00016 4.66667V2H1.3335V14H14.6668V4.66667H8.00016ZM4.00016 12.6667H2.66683V11.3333H4.00016V12.6667ZM4.00016 10H2.66683V8.66667H4.00016V10ZM4.00016 7.33333H2.66683V6H4.00016V7.33333ZM4.00016 4.66667H2.66683V3.33333H4.00016V4.66667ZM6.66683 12.6667H5.3335V11.3333H6.66683V12.6667ZM6.66683 10H5.3335V8.66667H6.66683V10ZM6.66683 7.33333H5.3335V6H6.66683V7.33333ZM6.66683 4.66667H5.3335V3.33333H6.66683V4.66667ZM13.3335 12.6667H8.00016V11.3333H9.3335V10H8.00016V8.66667H9.3335V7.33333H8.00016V6H13.3335V12.6667ZM12.0002 7.33333H10.6668V8.66667H12.0002V7.33333ZM12.0002 10H10.6668V11.3333H12.0002V10Z" fill="currentColor"/>
            </g>    
        </svg>
        <svg id='arrow-dropdown' viewBox="0 0 24 24" fill="none" xmlns="http://www.w3.org/2000/svg">
            <g opacity="0.9">
                <path d="M7 10L12 15L17 10H7Z" fill="#717D8A"/>
            </g>
        </svg>
        <svg id='plus' viewBox="0 0 16 16" fill="none" xmlns="http://www.w3.org/2000/svg">
            <path d="M12.6667 8.66665H8.66671V12.6666H7.33337V8.66665H3.33337V7.33331H7.33337V3.33331H8.66671V7.33331H12.6667V8.66665Z" fill="white"/>
        </svg>
        <svg id='filter-list' width="16" height="16" viewBox="0 0 16 16" fill="none" xmlns="http://www.w3.org/2000/svg">
            <path d="M6.66667 12H9.33333V10.6667H6.66667V12ZM2 4V5.33333H14V4H2ZM4 8.66667H12V7.33333H4V8.66667Z" fill="#A8B0B9"/>
        </svg>
        <svg id='sort' width="16" height="16" viewBox="0 0 16 16" fill="none" xmlns="http://www.w3.org/2000/svg">
            <path d="M2 12H6V10.6667H2V12ZM2 4V5.33333H14V4H2ZM2 8.66667H10V7.33333H2V8.66667Z" fill="#A8B0B9"/>
        </svg>
        <svg id='refresh' width="16" height="16" viewBox="0 0 16 16" fill="none" xmlns="http://www.w3.org/2000/svg">
            <path d="M10.3666 3.69999L7.33329 0.666656V2.71332C4.70663 3.03999 2.66663 5.27999 2.66663 7.99999C2.66663 10.72 4.69996 12.96 7.33329 13.2867V11.94C5.43996 11.62 3.99996 9.97999 3.99996 7.99999C3.99996 6.01999 5.43996 4.37999 7.33329 4.05999V6.66666L10.3666 3.69999ZM13.2866 7.33332C13.1733 6.40666 12.8066 5.51332 12.2066 4.73999L11.26 5.68666C11.62 6.18666 11.8466 6.75332 11.94 7.33332H13.2866ZM8.66663 11.9333V13.28C9.59329 13.1667 10.4933 12.8067 11.2666 12.2067L10.3066 11.2467C9.80663 11.6067 9.24663 11.84 8.66663 11.9333ZM11.26 10.32L12.2066 11.26C12.8066 10.4867 13.1733 9.59332 13.2866 8.66666H11.94C11.8466 9.24666 11.62 9.81332 11.26 10.32V10.32Z" fill="#A8B0B9"/>
        </svg>
        <svg id='settings-icon' width="16" height="16" viewBox="0 0 16 16" fill="none" xmlns="http://www.w3.org/2000/svg">
            <path d="M12.9532 8.65334C12.9799 8.44001 12.9999 8.22668 12.9999 8.00001C12.9999 7.77334 12.9799 7.56001 12.9532 7.34668L14.3599 6.24668C14.4866 6.14668 14.5199 5.96668 14.4399 5.82001L13.1066 3.51334C13.0466 3.40668 12.9332 3.34668 12.8132 3.34668C12.7732 3.34668 12.7332 3.35334 12.6999 3.36668L11.0399 4.03334C10.6932 3.76668 10.3199 3.54668 9.91323 3.38001L9.65989 1.61334C9.63989 1.45334 9.49989 1.33334 9.33323 1.33334H6.66656C6.49989 1.33334 6.35989 1.45334 6.33989 1.61334L6.08656 3.38001C5.67989 3.54668 5.30656 3.77334 4.95989 4.03334L3.29989 3.36668C3.25989 3.35334 3.21989 3.34668 3.17989 3.34668C3.06656 3.34668 2.95323 3.40668 2.89323 3.51334L1.55989 5.82001C1.47323 5.96668 1.51323 6.14668 1.63989 6.24668L3.04656 7.34668C3.01989 7.56001 2.99989 7.78001 2.99989 8.00001C2.99989 8.22001 3.01989 8.44001 3.04656 8.65334L1.63989 9.75334C1.51323 9.85334 1.47989 10.0333 1.55989 10.18L2.89323 12.4867C2.95323 12.5933 3.06656 12.6533 3.18656 12.6533C3.22656 12.6533 3.26656 12.6467 3.29989 12.6333L4.95989 11.9667C5.30656 12.2333 5.67989 12.4533 6.08656 12.62L6.33989 14.3867C6.35989 14.5467 6.49989 14.6667 6.66656 14.6667H9.33323C9.49989 14.6667 9.63989 14.5467 9.65989 14.3867L9.91323 12.62C10.3199 12.4533 10.6932 12.2267 11.0399 11.9667L12.6999 12.6333C12.7399 12.6467 12.7799 12.6533 12.8199 12.6533C12.9332 12.6533 13.0466 12.5933 13.1066 12.4867L14.4399 10.18C14.5199 10.0333 14.4866 9.85334 14.3599 9.75334L12.9532 8.65334V8.65334ZM11.6332 7.51334C11.6599 7.72001 11.6666 7.86001 11.6666 8.00001C11.6666 8.14001 11.6532 8.28668 11.6332 8.48668L11.5399 9.24001L12.1332 9.70668L12.8532 10.2667L12.3866 11.0733L11.5399 10.7333L10.8466 10.4533L10.2466 10.9067C9.95989 11.12 9.68656 11.28 9.41323 11.3933L8.70656 11.68L8.59989 12.4333L8.46656 13.3333H7.53323L7.40656 12.4333L7.29989 11.68L6.59323 11.3933C6.30656 11.2733 6.03989 11.12 5.77323 10.92L5.16656 10.4533L4.45989 10.74L3.61323 11.08L3.14656 10.2733L3.86656 9.71334L4.45989 9.24668L4.36656 8.49334C4.34656 8.28668 4.33323 8.13334 4.33323 8.00001C4.33323 7.86668 4.34656 7.71334 4.36656 7.51334L4.45989 6.76001L3.86656 6.29334L3.14656 5.73334L3.61323 4.92668L4.45989 5.26668L5.15323 5.54668L5.75323 5.09334C6.03989 4.88001 6.31323 4.72001 6.58656 4.60668L7.29323 4.32001L7.39989 3.56668L7.53323 2.66668H8.45989L8.58656 3.56668L8.69323 4.32001L9.39989 4.60668C9.68656 4.72668 9.95323 4.88001 10.2199 5.08001L10.8266 5.54668L11.5332 5.26001L12.3799 4.92001L12.8466 5.72668L12.1332 6.29334L11.5399 6.76001L11.6332 7.51334ZM7.99989 5.33334C6.52656 5.33334 5.33323 6.52668 5.33323 8.00001C5.33323 9.47334 6.52656 10.6667 7.99989 10.6667C9.47323 10.6667 10.6666 9.47334 10.6666 8.00001C10.6666 6.52668 9.47323 5.33334 7.99989 5.33334ZM7.99989 9.33334C7.26656 9.33334 6.66656 8.73334 6.66656 8.00001C6.66656 7.26668 7.26656 6.66668 7.99989 6.66668C8.73323 6.66668 9.33323 7.26668 9.33323 8.00001C9.33323 8.73334 8.73323 9.33334 7.99989 9.33334Z" fill="#A8B0B9"/>
        </svg>
        <svg id='more-vert' width="16" height="16" viewBox="0 0 16 16" fill="none" xmlns="http://www.w3.org/2000/svg">
            <path d="M7.99996 5.33332C8.73329 5.33332 9.33329 4.73332 9.33329 3.99999C9.33329 3.26666 8.73329 2.66666 7.99996 2.66666C7.26663 2.66666 6.66663 3.26666 6.66663 3.99999C6.66663 4.73332 7.26663 5.33332 7.99996 5.33332ZM7.99996 6.66666C7.26663 6.66666 6.66663 7.26666 6.66663 7.99999C6.66663 8.73332 7.26663 9.33332 7.99996 9.33332C8.73329 9.33332 9.33329 8.73332 9.33329 7.99999C9.33329 7.26666 8.73329 6.66666 7.99996 6.66666ZM7.99996 10.6667C7.26663 10.6667 6.66663 11.2667 6.66663 12C6.66663 12.7333 7.26663 13.3333 7.99996 13.3333C8.73329 13.3333 9.33329 12.7333 9.33329 12C9.33329 11.2667 8.73329 10.6667 7.99996 10.6667Z" fill="#0C1116"/>
        </svg>
        <svg id='arrow-up' width="16" height="17" viewBox="0 0 16 17" fill="none" xmlns="http://www.w3.org/2000/svg">
            <path d="M2.66675 8.49999L3.60675 9.43999L7.33341 5.71999V13.8333H8.66675V5.71999L12.3867 9.44666L13.3334 8.49999L8.00008 3.16666L2.66675 8.49999Z" fill="#A8B0B9"/>
        </svg>
        <svg id='folder-shared' viewBox="0 0 16 17" fill="none" xmlns="http://www.w3.org/2000/svg">
            <path d="M13.3333 4.49999H7.99992L6.66659 3.16666H2.66659C1.93325 3.16666 1.33992 3.76666 1.33992 4.49999L1.33325 12.5C1.33325 13.2333 1.93325 13.8333 2.66659 13.8333H13.3333C14.0666 13.8333 14.6666 13.2333 14.6666 12.5V5.83332C14.6666 5.09999 14.0666 4.49999 13.3333 4.49999ZM13.3333 12.5H2.66659V4.49999H6.11325L7.44659 5.83332H13.3333V12.5ZM9.99992 9.16666C10.7333 9.16666 11.3333 8.56666 11.3333 7.83332C11.3333 7.09999 10.7333 6.49999 9.99992 6.49999C9.26659 6.49999 8.66659 7.09999 8.66659 7.83332C8.66659 8.56666 9.26659 9.16666 9.99992 9.16666ZM7.33325 11.8333H12.6666V11.1667C12.6666 10.28 10.8866 9.83332 9.99992 9.83332C9.11325 9.83332 7.33325 10.28 7.33325 11.1667V11.8333Z" fill="#A8B0B9"/>
        </svg>
        <svg id='actions' width="25" height="24" viewBox="0 0 25 24" fill="none" xmlns="http://www.w3.org/2000/svg">
            <path d="M6.5 10C5.4 10 4.5 10.9 4.5 12C4.5 13.1 5.4 14 6.5 14C7.6 14 8.5 13.1 8.5 12C8.5 10.9 7.6 10 6.5 10ZM18.5 10C17.4 10 16.5 10.9 16.5 12C16.5 13.1 17.4 14 18.5 14C19.6 14 20.5 13.1 20.5 12C20.5 10.9 19.6 10 18.5 10ZM12.5 10C11.4 10 10.5 10.9 10.5 12C10.5 13.1 11.4 14 12.5 14C13.6 14 14.5 13.1 14.5 12C14.5 10.9 13.6 10 12.5 10Z" fill="#A8B0B9"/>
        </svg>
        <svg id='apple' viewBox="0 0 14 18" fill="none" xmlns="http://www.w3.org/2000/svg">
            <g clip-path="url(#clip0_943_537)">
            <path d="M7.71296 1.97872C8.83961 0.507174 10.4059 0.5 10.4059 0.5C10.4059 0.5 10.6389 1.8835 9.51963 3.21626C8.32454 4.63935 6.96614 4.40648 6.96614 4.40648C6.96614 4.40648 6.71107 3.28727 7.71296 1.97872ZM7.10944 5.37562C7.68904 5.37562 8.76476 4.58609 10.165 4.58609C12.5752 4.58609 13.5233 6.28561 13.5233 6.28561C13.5233 6.28561 11.6689 7.22519 11.6689 9.50503C11.6689 12.0769 13.979 12.9632 13.979 12.9632C13.979 12.9632 12.3641 17.4675 10.1829 17.4675C9.18107 17.4675 8.4022 16.7984 7.34662 16.7984C6.2709 16.7984 5.20341 17.4924 4.50814 17.4924C2.51634 17.4925 0 13.2197 0 9.78518C0 6.40606 2.12992 4.63343 4.12769 4.63343C5.42642 4.63343 6.43425 5.37562 7.10944 5.37562Z" fill="white"/>
            </g>
            <defs>
            <clipPath id="clip0_943_537">
            <rect width="14" height="17" fill="white" transform="translate(0 0.5)"/>
            </clipPath>
            </defs>
        </svg>
        <svg id='tesla' viewBox="0 0 18 19" fill="none" xmlns="http://www.w3.org/2000/svg">
            <g clip-path="url(#clip0_943_516)">
                 <path d="M9.00017 4.52151L10.8564 2.25201C13.1822 2.37876 15.3482 2.93301 17.3207 3.83826L17.2104 3.79251C16.5894 4.60101 15.7704 5.22876 14.8254 5.60751L14.7872 5.62101C14.6777 4.54176 13.9217 4.27851 11.5217 4.27851L9.00092 18.5L6.46517 4.27551C4.08017 4.27551 3.32417 4.54101 3.21392 5.61951C2.23142 5.23026 1.41317 4.60551 0.80192 3.81276L0.79217 3.80001C2.65292 2.93901 4.81892 2.38326 7.09892 2.25726L7.14467 2.25501L9.00092 4.52151H9.00017ZM9.00017 1.59651C9.08042 1.59501 9.17492 1.59501 9.26942 1.59501C12.2447 1.59501 15.0729 2.22501 17.6274 3.35901L17.4962 3.30726C17.6739 3.01176 17.8434 2.66751 17.9837 2.30901L18.0002 2.26176C15.3369 1.16451 12.2469 0.519513 9.00767 0.500763H9.00017C5.75417 0.518763 2.66342 1.16376 -0.16333 2.32176L0.000169918 2.26251C0.16817 2.67876 0.33692 3.02376 0.52742 3.35601L0.50417 3.31251C2.93267 2.22651 5.76692 1.59426 8.74967 1.59426C8.83817 1.59426 8.92592 1.59501 9.01367 1.59576H9.00017V1.59651Z" fill="white"/>
            </g>
            <defs>
                <clipPath id="clip0_943_516">
                    <rect width="18" height="18" fill="white" transform="translate(0 0.5)"/>
                </clipPath>
            </defs>
        </svg>
        <svg id='nike' viewBox="0 0 18 7" fill="none" xmlns="http://www.w3.org/2000/svg">
            <g clip-path="url(#clip0_943_522)">
                <path d="M1.98553 6.49751C1.44921 6.47758 1.01041 6.34032 0.667312 6.08539C0.601833 6.03668 0.445803 5.89066 0.393456 5.82907C0.254323 5.66544 0.159731 5.50619 0.0966396 5.32951C-0.097503 4.78562 0.00241528 4.07192 0.382435 3.28864C0.707812 2.61805 1.20988 1.95297 2.08582 1.03183C2.21485 0.896283 2.5991 0.499878 2.60158 0.499878C2.60249 0.499878 2.58155 0.533806 2.5552 0.575122C2.32744 0.93193 2.13257 1.35221 2.0264 1.71607C1.85586 2.2999 1.87643 2.80092 2.08665 3.18943C2.23166 3.45708 2.48026 3.68891 2.75981 3.81706C3.24921 4.04134 3.96572 4.05989 4.84073 3.87135C4.90098 3.85829 7.88622 3.1171 11.4746 2.22422C15.0631 1.33126 17.9995 0.601234 18 0.601835C18.001 0.60261 9.66307 3.93964 5.33472 5.67086C4.64926 5.94495 4.46595 6.01418 4.14369 6.12C3.31992 6.39057 2.58201 6.51967 1.98553 6.49751Z" fill="white"/>
            </g>
            <defs>
                <clipPath id="clip0_943_522">
                    <rect width="18" height="6" fill="white" transform="translate(0 0.5)"/>
                </clipPath>
            </defs>
        </svg>
        <svg id='sony' viewBox="0 0 22 5" fill="none" xmlns="http://www.w3.org/2000/svg">
            <g clip-path="url(#clip0_943_528)">
                <path d="M18.1346 3.76241V4.18232H20.4701V3.76096H20.0283L19.9127 3.7545C19.866 3.74225 19.8334 3.71023 19.8215 3.67611L19.8117 3.58401V2.91995L19.8294 2.85737C19.8606 2.82087 21.0687 1.45995 21.1244 1.40039C21.2408 1.26824 21.3041 1.23978 21.4602 1.23978H21.8899V0.822242H19.9656V1.23978H20.2537C20.3392 1.23978 20.363 1.32529 20.3261 1.37088L19.5084 2.31334L19.485 2.31071L18.6884 1.37088C18.6309 1.30105 18.6784 1.23978 18.7407 1.23978H19.0238V0.822242H16.6756V1.23978H17.0939C17.2756 1.23978 17.3935 1.35362 17.4627 1.42767C17.5169 1.4859 18.7126 2.82351 18.7407 2.86158C18.7705 2.89834 18.7705 2.90375 18.7705 2.91995V3.58401L18.7629 3.67611C18.7446 3.71023 18.716 3.74225 18.6706 3.7545L18.5531 3.76241H18.1346ZM10.9483 0.822242V1.24097H11.3203C11.59 1.24097 11.6096 1.38972 11.6096 1.51713V3.48374C11.6096 3.60166 11.6166 3.76241 11.4443 3.76241H10.9825V4.18232H12.9502V3.76241H12.4706C12.2806 3.76241 12.2695 3.67756 12.2663 3.49191V1.80897L14.9642 4.18232H15.6496L15.6136 1.50145C15.6184 1.30685 15.6294 1.23978 15.8332 1.23978H16.2637V0.822242H14.2609V1.23978H14.702C14.9024 1.23978 14.9383 1.3187 14.9394 1.50145L14.9642 2.90375L12.6227 0.822242H10.9483ZM2.10399 0.608531C1.68216 0.608531 1.2013 0.689826 0.797368 0.867435C0.420156 1.03398 0.109863 1.30105 0.109863 1.74599C0.109863 2.14456 0.367795 2.37896 0.35978 2.37131C0.470914 2.47145 0.647098 2.64168 1.1086 2.73958C1.31363 2.78464 1.75376 2.85104 2.19375 2.89966C2.62853 2.94406 3.05824 2.98715 3.23335 3.02984C3.37187 3.06594 3.60322 3.11324 3.60322 3.3699C3.60322 3.62788 3.35811 3.70536 3.31537 3.72156C3.27155 3.73935 2.97849 3.8719 2.44794 3.8719C2.05764 3.8719 1.58812 3.75608 1.41662 3.69772C1.22093 3.62788 1.01429 3.5346 0.820876 3.30192C0.772122 3.24394 0.699725 3.08518 0.699725 2.92891H0.216588V4.25136H0.749414V4.07309C0.749414 4.05491 0.777598 3.96914 0.864287 4.01117C0.974886 4.06163 1.30188 4.18772 1.64516 4.25782C1.92366 4.315 2.10399 4.35598 2.45128 4.35598C3.01977 4.35598 3.32392 4.26559 3.53389 4.20643C3.73572 4.14912 3.9811 4.0478 4.17785 3.89298C4.28605 3.80931 4.52114 3.59086 4.52114 3.19717C4.52114 2.81731 4.31757 2.58186 4.2433 2.5119C4.14459 2.41374 4.02558 2.33851 3.89962 2.28027C3.78822 2.23047 3.61618 2.16828 3.47579 2.13534C3.19956 2.06709 2.57951 1.98566 2.28485 1.95601C1.97442 1.92281 1.43291 1.87894 1.21919 1.81319C1.15361 1.79408 1.01883 1.72939 1.01883 1.57813C1.01883 1.47049 1.08215 1.37773 1.20129 1.30184C1.39137 1.18458 1.78034 1.1125 2.18012 1.1125C2.65765 1.11145 3.05971 1.21527 3.31537 1.32924C3.40299 1.37088 3.50357 1.42345 3.58625 1.48893C3.67735 1.56259 3.80478 1.71503 3.85113 1.92795H4.28217V0.77639H3.80291V0.909729C3.80291 0.953736 3.75776 1.00881 3.67014 0.964277C3.45642 0.851624 2.8496 0.612089 2.10399 0.608531ZM7.8689 4.39142C7.08095 4.39142 6.35016 4.15742 5.85968 3.72367C5.49235 3.39718 5.31243 2.95289 5.31243 2.49754C5.31243 2.04706 5.49903 1.59671 5.85968 1.27167C6.31396 0.864668 7.11634 0.6084 7.8689 0.6084C8.70747 0.6084 9.37441 0.816972 9.88359 1.27364C10.2474 1.60027 10.4235 2.04442 10.4235 2.49754C10.4235 2.93497 10.2376 3.40232 9.88359 3.72367C9.41007 4.1615 8.66179 4.39142 7.8689 4.39142V3.89298C8.29072 3.89298 8.67782 3.74844 8.94831 3.48374C9.21772 3.2172 9.34328 2.89465 9.34328 2.49754C9.34328 2.11373 9.20837 1.76101 8.94831 1.50843C8.68156 1.2494 8.28271 1.10078 7.8689 1.10078C7.45482 1.10078 7.0581 1.2469 6.78842 1.50843C6.53222 1.76101 6.39598 2.11702 6.39598 2.49754C6.39598 2.87529 6.53396 3.22985 6.78842 3.48374C7.0581 3.74699 7.45482 3.89298 7.8689 3.89298" fill="white"/>
            </g>
            <defs>
                <clipPath id="clip0_943_528">
                    <rect width="22" height="4" fill="white" transform="translate(0 0.5)"/>
                </clipPath>
            </defs>
        </svg>
        <svg id='calendar' viewBox="0 0 16 17" fill="none" xmlns="http://www.w3.org/2000/svg">
            <path d="M13.3334 2.49999H12.6667V1.16666H11.3334V2.49999H4.66671V1.16666H3.33337V2.49999H2.66671C1.93337 2.49999 1.33337 3.09999 1.33337 3.83332V14.5C1.33337 15.2333 1.93337 15.8333 2.66671 15.8333H13.3334C14.0667 15.8333 14.6667 15.2333 14.6667 14.5V3.83332C14.6667 3.09999 14.0667 2.49999 13.3334 2.49999ZM13.3334 14.5H2.66671V7.16666H13.3334V14.5ZM13.3334 5.83332H2.66671V3.83332H13.3334V5.83332Z" fill="#A8B0B9"/>
        </svg>
        <svg id='trending-up' viewBox="0 0 24 24" fill="none" xmlns="http://www.w3.org/2000/svg">
            <g opacity="0.9">
                <path d="M16 6L18.29 8.29L13.41 13.17L9.41 9.17L2 16.59L3.41 18L9.41 12L13.41 16L19.71 9.71L22 12V6H16Z" fill="#2BA52E"/>
            </g>
        </svg>
        <svg id='trending-flat' viewBox="0 0 24 24" fill="none" xmlns="http://www.w3.org/2000/svg">
            <g opacity="0.9">
                 <path d="M22 12L18 8V11H3V13H18V16L22 12Z" fill="#3333D1"/>
            </g>
        </svg>
        <svg id='trending-down' viewBox="0 0 24 24" fill="none" xmlns="http://www.w3.org/2000/svg">
            <g opacity="0.9">
                <path d="M16 18L18.29 15.71L13.41 10.83L9.41 14.83L2 7.41L3.41 6L9.41 12L13.41 8L19.71 14.29L22 12V18H16Z" fill="#FF513A"/>
            </g>
        </svg>


























    </defs>
</svg>


