<svg xmlns="http://www.w3.org/2000/svg" > 
    <defs>
        <svg id='dashboard' viewBox="0 0 24 24" fill="none" xmlns="http://www.w3.org/2000/svg">
            <path d="M21 3H3C1.9 3 1 3.9 1 5V19C1 20.1 1.9 21 3 21H21C22.1 21 23 20.1 23 19V5C23 3.9 22.1 3 21 3ZM21 19H3V5H13V9H21V19Z" fill="currentColor"/>
        </svg>
        <svg id='invoices'  viewBox="0 0 24 24" fill="none" xmlns="http://www.w3.org/2000/svg">
            <g opacity="0.9">
                <path d="M12 1L3 5V11C3 16.55 6.84 21.74 12 23C17.16 21.74 21 16.55 21 11V5L12 1ZM19 11C19 15.52 16.02 19.69 12 20.93C7.98 19.69 5 15.52 5 11V6.3L12 3.19L19 6.3V11ZM7.41 11.59L6 13L10 17L18 9L16.59 7.58L10 14.17L7.41 11.59Z" fill="currentColor"/>
            </g>
        </svg>
        <svg id='available-units' viewBox="0 0 24 24" fill="none" xmlns="http://www.w3.org/2000/svg">
            <g opacity="0.9">
                <path d="M12 7V3H2V21H22V7H12ZM6 19H4V17H6V19ZM6 15H4V13H6V15ZM6 11H4V9H6V11ZM6 7H4V5H6V7ZM10 19H8V17H10V19ZM10 15H8V13H10V15ZM10 11H8V9H10V11ZM10 7H8V5H10V7ZM20 19H12V17H14V15H12V13H14V11H12V9H20V19ZM18 11H16V13H18V11ZM18 15H16V17H18V15Z" fill="currentColor"/>
            </g>
        </svg>
        <svg id='projects' viewBox="0 0 24 24" fill="none" xmlns="http://www.w3.org/2000/svg">
            <g opacity="0.9">
                <path d="M12 2C6.5 2 2 6.5 2 12C2 17.5 6.5 22 12 22C17.5 22 22 17.5 22 12C22 6.5 17.5 2 12 2ZM12 20C7.59 20 4 16.41 4 12C4 7.59 7.59 4 12 4C16.41 4 20 7.59 20 12C20 16.41 16.41 20 12 20ZM12.5 7H11V13L16.2 16.2L17 14.9L12.5 12.2V7Z" fill="currentColor"/>
            </g>
        </svg>
        <svg id='social-media' viewBox="0 0 24 24" fill="none" xmlns="http://www.w3.org/2000/svg">
            <g opacity="0.9">
                <path d="M18 16.08C17.24 16.08 16.56 16.38 16.04 16.85L8.91 12.7C8.96 12.47 9 12.24 9 12C9 11.76 8.96 11.53 8.91 11.3L15.96 7.19C16.5 7.69 17.21 8 18 8C19.66 8 21 6.66 21 5C21 3.34 19.66 2 18 2C16.34 2 15 3.34 15 5C15 5.24 15.04 5.47 15.09 5.7L8.04 9.81C7.5 9.31 6.79 9 6 9C4.34 9 3 10.34 3 12C3 13.66 4.34 15 6 15C6.79 15 7.5 14.69 8.04 14.19L15.16 18.35C15.11 18.56 15.08 18.78 15.08 19C15.08 20.61 16.39 21.92 18 21.92C19.61 21.92 20.92 20.61 20.92 19C20.92 17.39 19.61 16.08 18 16.08ZM18 4C18.55 4 19 4.45 19 5C19 5.55 18.55 6 18 6C17.45 6 17 5.55 17 5C17 4.45 17.45 4 18 4ZM6 13C5.45 13 5 12.55 5 12C5 11.45 5.45 11 6 11C6.55 11 7 11.45 7 12C7 12.55 6.55 13 6 13ZM18 20.02C17.45 20.02 17 19.57 17 19.02C17 18.47 17.45 18.02 18 18.02C18.55 18.02 19 18.47 19 19.02C19 19.57 18.55 20.02 18 20.02Z" fill="currentColor"/>
            </g>
        </svg>
        <svg id='integrations' viewBox="0 0 24 24" fill="none" xmlns="http://www.w3.org/2000/svg">
            <g opacity="0.9">
                <path d="M19 5V7H15V5H19ZM9 5V11H5V5H9ZM19 13V19H15V13H19ZM9 17V19H5V17H9ZM21 3H13V9H21V3ZM11 3H3V13H11V3ZM21 11H13V21H21V11ZM11 15H3V21H11V15Z" fill="currentColor"/>
            </g>
        </svg>
        <svg id='documentation' viewBox="0 0 24 24" fill="none" xmlns="http://www.w3.org/2000/svg">
            <g opacity="0.9">
                <path d="M15 7V19.97L10.79 18.16L10 17.82L9.21 18.16L5 19.97V7H15ZM19 1H8.99C7.89 1 7 1.9 7 3H17C18.1 3 19 3.9 19 5V18L21 19V3C21 1.9 20.1 1 19 1ZM15 5H5C3.9 5 3 5.9 3 7V23L10 20L17 23V7C17 5.9 16.1 5 15 5Z" fill="currentColor"/>
            </g>
        </svg>
        <svg id='settings' width="24" height="24" viewBox="0 0 24 24" fill="none" xmlns="http://www.w3.org/2000/svg">
            <g opacity="0.9">
                <path d="M19.4298 12.98C19.4698 12.66 19.4998 12.34 19.4998 12C19.4998 11.66 19.4698 11.34 19.4298 11.02L21.5398 9.37C21.7298 9.22 21.7798 8.95 21.6598 8.73L19.6598 5.27C19.5698 5.11 19.3998 5.02 19.2198 5.02C19.1598 5.02 19.0998 5.03 19.0498 5.05L16.5598 6.05C16.0398 5.65 15.4798 5.32 14.8698 5.07L14.4898 2.42C14.4598 2.18 14.2498 2 13.9998 2H9.99984C9.74984 2 9.53984 2.18 9.50984 2.42L9.12984 5.07C8.51984 5.32 7.95984 5.66 7.43984 6.05L4.94984 5.05C4.88984 5.03 4.82984 5.02 4.76984 5.02C4.59984 5.02 4.42984 5.11 4.33984 5.27L2.33984 8.73C2.20984 8.95 2.26984 9.22 2.45984 9.37L4.56984 11.02C4.52984 11.34 4.49984 11.67 4.49984 12C4.49984 12.33 4.52984 12.66 4.56984 12.98L2.45984 14.63C2.26984 14.78 2.21984 15.05 2.33984 15.27L4.33984 18.73C4.42984 18.89 4.59984 18.98 4.77984 18.98C4.83984 18.98 4.89984 18.97 4.94984 18.95L7.43984 17.95C7.95984 18.35 8.51984 18.68 9.12984 18.93L9.50984 21.58C9.53984 21.82 9.74984 22 9.99984 22H13.9998C14.2498 22 14.4598 21.82 14.4898 21.58L14.8698 18.93C15.4798 18.68 16.0398 18.34 16.5598 17.95L19.0498 18.95C19.1098 18.97 19.1698 18.98 19.2298 18.98C19.3998 18.98 19.5698 18.89 19.6598 18.73L21.6598 15.27C21.7798 15.05 21.7298 14.78 21.5398 14.63L19.4298 12.98V12.98ZM17.4498 11.27C17.4898 11.58 17.4998 11.79 17.4998 12C17.4998 12.21 17.4798 12.43 17.4498 12.73L17.3098 13.86L18.1998 14.56L19.2798 15.4L18.5798 16.61L17.3098 16.1L16.2698 15.68L15.3698 16.36C14.9398 16.68 14.5298 16.92 14.1198 17.09L13.0598 17.52L12.8998 18.65L12.6998 20H11.2998L11.1098 18.65L10.9498 17.52L9.88984 17.09C9.45984 16.91 9.05984 16.68 8.65984 16.38L7.74984 15.68L6.68984 16.11L5.41984 16.62L4.71984 15.41L5.79984 14.57L6.68984 13.87L6.54984 12.74C6.51984 12.43 6.49984 12.2 6.49984 12C6.49984 11.8 6.51984 11.57 6.54984 11.27L6.68984 10.14L5.79984 9.44L4.71984 8.6L5.41984 7.39L6.68984 7.9L7.72984 8.32L8.62984 7.64C9.05984 7.32 9.46984 7.08 9.87984 6.91L10.9398 6.48L11.0998 5.35L11.2998 4H12.6898L12.8798 5.35L13.0398 6.48L14.0998 6.91C14.5298 7.09 14.9298 7.32 15.3298 7.62L16.2398 8.32L17.2998 7.89L18.5698 7.38L19.2698 8.59L18.1998 9.44L17.3098 10.14L17.4498 11.27ZM11.9998 8C9.78984 8 7.99984 9.79 7.99984 12C7.99984 14.21 9.78984 16 11.9998 16C14.2098 16 15.9998 14.21 15.9998 12C15.9998 9.79 14.2098 8 11.9998 8ZM11.9998 14C10.8998 14 9.99984 13.1 9.99984 12C9.99984 10.9 10.8998 10 11.9998 10C13.0998 10 13.9998 10.9 13.9998 12C13.9998 13.1 13.0998 14 11.9998 14Z" fill="currentColor"/>
            </g>
        </svg>
        <svg id='help-center' viewBox="0 0 24 24" fill="none" xmlns="http://www.w3.org/2000/svg">
            <g opacity="0.9">
                <path d="M11 18H13V16H11V18ZM12 2C6.48 2 2 6.48 2 12C2 17.52 6.48 22 12 22C17.52 22 22 17.52 22 12C22 6.48 17.52 2 12 2ZM12 20C7.59 20 4 16.41 4 12C4 7.59 7.59 4 12 4C16.41 4 20 7.59 20 12C20 16.41 16.41 20 12 20ZM12 6C9.79 6 8 7.79 8 10H10C10 8.9 10.9 8 12 8C13.1 8 14 8.9 14 10C14 12 11 11.75 11 15H13C13 12.75 16 12.5 16 10C16 7.79 14.21 6 12 6Z" fill="currentColor"/>
            </g>
        </svg>
        <svg id='bell' viewBox="0 0 16 16" fill="none" xmlns="http://www.w3.org/2000/svg">
            <path d="M8.00008 14.6667C8.73341 14.6667 9.33341 14.0667 9.33341 13.3334H6.66675C6.66675 14.0667 7.26675 14.6667 8.00008 14.6667ZM12.0001 10.6667V7.33335C12.0001 5.28669 10.9134 3.57335 9.00008 3.12002V2.66669C9.00008 2.11335 8.55341 1.66669 8.00008 1.66669C7.44675 1.66669 7.00008 2.11335 7.00008 2.66669V3.12002C5.09341 3.57335 4.00008 5.28002 4.00008 7.33335V10.6667L2.66675 12V12.6667H13.3334V12L12.0001 10.6667ZM10.6667 11.3334H5.33341V7.33335C5.33341 5.68002 6.34008 4.33335 8.00008 4.33335C9.66008 4.33335 10.6667 5.68002 10.6667 7.33335V11.3334Z" fill="currentColor"/>
        </svg>
        <svg id='search' viewBox="0 0 16 16" fill="none" xmlns="http://www.w3.org/2000/svg">
            <path d="M10.3333 9.33333H9.80667L9.62 9.15333C10.2733 8.39333 10.6667 7.40667 10.6667 6.33333C10.6667 3.94 8.72667 2 6.33333 2C3.94 2 2 3.94 2 6.33333C2 8.72667 3.94 10.6667 6.33333 10.6667C7.40667 10.6667 8.39333 10.2733 9.15333 9.62L9.33333 9.80667V10.3333L12.6667 13.66L13.66 12.6667L10.3333 9.33333ZM6.33333 9.33333C4.67333 9.33333 3.33333 7.99333 3.33333 6.33333C3.33333 4.67333 4.67333 3.33333 6.33333 3.33333C7.99333 3.33333 9.33333 4.67333 9.33333 6.33333C9.33333 7.99333 7.99333 9.33333 6.33333 9.33333Z" fill="currentColor"/>
        </svg>
        <svg id='input-search-icon' viewBox="0 0 16 16" fill="none" xmlns="http://www.w3.org/2000/svg">
            <path d="M10.3333 9.33333H9.80667L9.62 9.15333C10.2733 8.39333 10.6667 7.40667 10.6667 6.33333C10.6667 3.94 8.72667 2 6.33333 2C3.94 2 2 3.94 2 6.33333C2 8.72667 3.94 10.6667 6.33333 10.6667C7.40667 10.6667 8.39333 10.2733 9.15333 9.62L9.33333 9.80667V10.3333L12.6667 13.66L13.66 12.6667L10.3333 9.33333ZM6.33333 9.33333C4.67333 9.33333 3.33333 7.99333 3.33333 6.33333C3.33333 4.67333 4.67333 3.33333 6.33333 3.33333C7.99333 3.33333 9.33333 4.67333 9.33333 6.33333C9.33333 7.99333 7.99333 9.33333 6.33333 9.33333Z" fill="currentColor"/>
        </svg>
        <svg id='location-pin' viewBox="0 0 16 16" fill="none" xmlns="http://www.w3.org/2000/svg">
            <g opacity="0.9">
            <path d="M8.00016 1.33334C5.42016 1.33334 3.3335 3.42001 3.3335 6.00001C3.3335 9.50001 8.00016 14.6667 8.00016 14.6667C8.00016 14.6667 12.6668 9.50001 12.6668 6.00001C12.6668 3.42001 10.5802 1.33334 8.00016 1.33334ZM4.66683 6.00001C4.66683 4.16001 6.16016 2.66668 8.00016 2.66668C9.84016 2.66668 11.3335 4.16001 11.3335 6.00001C11.3335 7.92001 9.4135 10.7933 8.00016 12.5867C6.6135 10.8067 4.66683 7.90001 4.66683 6.00001Z" fill="currentColor"/>
            <path d="M8.00016 7.66668C8.92064 7.66668 9.66683 6.92048 9.66683 6.00001C9.66683 5.07954 8.92064 4.33334 8.00016 4.33334C7.07969 4.33334 6.3335 5.07954 6.3335 6.00001C6.3335 6.92048 7.07969 7.66668 8.00016 7.66668Z" fill="currentColor"/>
            </g>
        </svg>
        <svg id='rooms' viewBox="0 0 16 16" fill="none" xmlns="http://www.w3.org/2000/svg">
            <g opacity="0.9">
            <path d="M1.3335 3.99999H4.00016V11.3333H1.3335V3.99999ZM4.66683 12.6667H11.3335V2.66666H4.66683V12.6667ZM6.00016 3.99999H10.0002V11.3333H6.00016V3.99999ZM12.0002 3.99999H14.6668V11.3333H12.0002V3.99999Z" fill="currentColor"/>
            </g>
        </svg>
        <svg id='villa' viewBox="0 0 16 16" fill="none" xmlns="http://www.w3.org/2000/svg">
            <g opacity="0.9">
            <path d="M8.00016 4.66667V2H1.3335V14H14.6668V4.66667H8.00016ZM4.00016 12.6667H2.66683V11.3333H4.00016V12.6667ZM4.00016 10H2.66683V8.66667H4.00016V10ZM4.00016 7.33333H2.66683V6H4.00016V7.33333ZM4.00016 4.66667H2.66683V3.33333H4.00016V4.66667ZM6.66683 12.6667H5.3335V11.3333H6.66683V12.6667ZM6.66683 10H5.3335V8.66667H6.66683V10ZM6.66683 7.33333H5.3335V6H6.66683V7.33333ZM6.66683 4.66667H5.3335V3.33333H6.66683V4.66667ZM13.3335 12.6667H8.00016V11.3333H9.3335V10H8.00016V8.66667H9.3335V7.33333H8.00016V6H13.3335V12.6667ZM12.0002 7.33333H10.6668V8.66667H12.0002V7.33333ZM12.0002 10H10.6668V11.3333H12.0002V10Z" fill="currentColor"/>
            </g>    
        </svg>
        <svg id='arrow-dropdown' viewBox="0 0 24 24" fill="none" xmlns="http://www.w3.org/2000/svg">
            <g opacity="0.9">
                <path d="M7 10L12 15L17 10H7Z" fill="#717D8A"/>
            </g>
        </svg>
        <svg id='plus' viewBox="0 0 16 16" fill="none" xmlns="http://www.w3.org/2000/svg">
            <path d="M12.6667 8.66665H8.66671V12.6666H7.33337V8.66665H3.33337V7.33331H7.33337V3.33331H8.66671V7.33331H12.6667V8.66665Z" fill="white"/>
        </svg>










    </defs>
</svg>


